<?xml version="1.0" encoding="UTF-8" standalone="no"?>
<!-- Created with Inkscape (http://www.inkscape.org/) -->

<svg
   width="90.605331mm"
   height="90.640877mm"
   viewBox="0 0 90.605331 90.640877"
   version="1.1"
   id="svg5"
   xml:space="preserve"
   xmlns:inkscape="http://www.inkscape.org/namespaces/inkscape"
   xmlns:sodipodi="http://sodipodi.sourceforge.net/DTD/sodipodi-0.dtd"
   xmlns="http://www.w3.org/2000/svg"
   xmlns:svg="http://www.w3.org/2000/svg"><sodipodi:namedview
     id="namedview7"
     pagecolor="#ffffff"
     bordercolor="#000000"
     borderopacity="0.25"
     inkscape:showpageshadow="2"
     inkscape:pageopacity="0.0"
     inkscape:pagecheckerboard="0"
     inkscape:deskcolor="#d1d1d1"
     inkscape:document-units="mm"
     showgrid="false"
     showguides="true" /><defs
     id="defs2" /><g
     inkscape:label="레이어 1"
     inkscape:groupmode="layer"
     id="layer1"
     transform="translate(-58.295823,-77.222463)"><g
       id="g1528"
       transform="translate(-2.3210783,21.00516)"><path
         style="fill:#c3e0c9;stroke-width:0.352778"
         d="M 97.266784,145.95782 C 62.145947,138.68097 48.541737,96.164034 73.072479,70.343898 98.690087,43.379768 143.97358,57.10598 150.53748,93.824885 c 5.48499,30.683375 -22.8692,58.431965 -53.270696,52.132935 z"
         id="path1536" /><path
         style="fill:#56994a;stroke-width:0.352778"
         d="M 98.302949,146.10696 C 65.4904,140.31853 49.775298,102.24122 69.036811,75.195812 90.378574,45.229496 137.09647,52.221373 148.77632,87.12976 c 10.70401,31.99182 -17.38573,64.81416 -50.473371,58.9772 z m 27.945721,-10.10752 c 3.67182,-1.37381 6.66794,-5.30375 7.07066,-9.27443 0.43758,-4.31433 -4.06688,-5.36269 -4.85753,-1.13054 -0.47473,2.54107 -1.34706,4.07017 -2.91357,5.10713 -2.29725,1.52068 -39.486097,1.67213 -38.496712,0.15678 0.35264,-0.54011 10.747484,-14.39639 23.099652,-30.79173 26.40251,-35.044718 24.78862,-32.509224 21.54741,-33.851775 -2.05099,-0.84955 -44.013368,-0.328178 -45.959046,0.571029 -6.335885,2.928168 -9.884561,13.150453 -4.426421,12.750706 1.628038,-0.119236 2.180009,-0.803923 2.543328,-3.154846 0.251432,-1.626939 1.446298,-3.410041 2.975769,-4.440751 1.206077,-0.812776 38.50859,-1.334073 38.46639,-0.537562 -0.008,0.145521 -10.48521,14.146623 -23.28334,31.113559 -24.600034,32.61317 -24.165191,31.96529 -22.497234,33.51922 1.239333,1.15462 43.635534,1.12123 46.730644,-0.0368 z"
         id="path1534" /><path
         style="fill:#2a5f37;stroke-width:0.352778"
         d="M 99.511333,146.28039 C 66.352187,140.98929 49.957369,104.06536 68.387684,76.184609 81.408047,56.487848 108.26351,50.438818 128.92843,62.548174 c 1.50363,0.881106 2.81937,1.740344 2.92387,1.909417 0.10716,0.173403 -9.47714,0.311854 -21.98664,0.317609 -24.214448,0.01114 -23.953503,-0.0089 -26.976743,2.071149 -6.336086,4.359342 -7.494767,14.170296 -1.673522,14.170296 2.075495,0 3.464318,-1.380075 3.84409,-3.819878 0.342752,-2.201976 1.212142,-3.529391 2.862451,-4.370491 1.162992,-0.592733 34.921234,-0.991152 34.921234,-0.412146 0,0.104753 -1.33725,1.96411 -2.97167,4.131904 -1.63443,2.167795 -6.49914,8.62457 -10.81047,14.348389 -4.31134,5.72382 -13.145955,17.443287 -19.632486,26.043267 -16.861119,22.35481 -17.208842,21.22896 6.556601,21.22896 12.086855,0 15.546035,0.0973 15.672035,0.44097 0.12935,0.35278 0.25517,0.35278 0.62912,0 0.57792,-0.54521 4.07602,-0.58533 4.40654,-0.0505 0.16814,0.27205 0.33163,0.24531 0.53922,-0.0882 0.24176,-0.38842 0.43203,-0.39552 1.00945,-0.0377 0.83379,0.51674 3.19055,0.59401 3.19055,0.1046 0,-0.18739 0.8984,-0.28638 2.02847,-0.22351 2.29903,0.1279 4.05303,-0.38654 5.98825,-1.75635 0.73254,-0.51851 1.01439,-0.83635 0.62634,-0.7063 -0.48093,0.16118 -0.34283,-0.0782 0.43378,-0.75176 2.98193,-2.58639 4.99562,-8.41058 3.85324,-11.14468 -1.56283,-3.74039 -7.2754,-2.41543 -7.28563,1.6898 -0.004,1.40022 -1.13019,3.19049 -2.55442,4.05885 -1.10569,0.67415 -1.80908,0.70107 -18.3522,0.70233 -17.20244,0.001 -17.20244,0.001 -12.170828,-6.65204 2.767384,-3.65935 7.015988,-9.28955 9.441338,-12.51155 2.42534,-3.222 4.59735,-5.86361 4.82667,-5.87025 0.49357,-0.0143 1.69424,-1.65462 1.94547,-2.65789 0.0972,-0.38806 5.59819,-7.908454 12.22449,-16.711996 12.95855,-17.216435 12.92202,-17.155079 11.64069,-19.549268 -1.51466,-2.830164 6.73498,5.773492 9.39957,9.802929 C 164.7542,108.4295 137.2125,152.29622 99.511333,146.28038 Z M 132.36817,64.965257 c 0,-0.09701 0.0794,-0.176389 0.17639,-0.176389 0.097,0 0.17639,0.07938 0.17639,0.176389 0,0.09701 -0.0794,0.176388 -0.17639,0.176388 -0.097,0 -0.17639,-0.07937 -0.17639,-0.176388 z"
         id="path1532" /><path
         style="fill:#0a1013;stroke-width:0.352778"
         d="m 98.765751,146.10975 c -5.257586,-0.86154 -16.139245,-5.03044 -16.139245,-6.18315 0,-0.47509 0.57091,-0.43822 1.426662,0.0921 0.584852,0.36246 0.768995,0.3486 1.034278,-0.0778 0.269672,-0.43349 0.518569,-0.44799 1.513588,-0.0882 1.616393,0.58449 3.255101,0.54184 3.786583,-0.0985 0.252202,-0.30389 1.021532,-0.52917 1.807085,-0.52917 0.98074,0 1.367915,0.14977 1.367915,0.52917 0,0.74419 2.666873,0.73729 2.952729,-0.008 0.860118,-2.24143 13.809764,-0.27741 14.006504,2.12431 0.20229,2.46945 0.20229,2.46945 0.26458,-0.0882 0.0343,-1.40754 0.21906,-2.55764 0.41092,-2.55764 0.19174,0 0.32534,0.27781 0.29688,0.61736 -0.1334,1.59176 0.0891,2.55764 0.58922,2.55764 0.29104,0 0.52917,0.15875 0.52917,0.35278 0,0.19402 -0.25757,0.35277 -0.57236,0.35277 -0.44902,0 -0.48454,0.10582 -0.16484,0.49105 0.59724,0.71962 1.71881,0.92328 1.93806,0.35191 0.20973,-0.54653 1.26858,-0.6786 1.26858,-0.15822 0,0.18257 -0.19844,0.46039 -0.44097,0.61736 -0.27376,0.17718 0.161,0.35229 1.14653,0.46179 1.53918,0.17102 1.49033,0.19543 -1.60498,0.80188 -4.43513,0.86897 -11.55413,1.07143 -15.416889,0.43845 z m 21.247449,-2.71586 c -0.004,-0.44964 -0.32458,-1.51585 -0.71182,-2.36936 -0.81316,-1.79224 -0.78397,-1.95896 0.20162,-1.15182 0.61703,0.50531 2.40505,3.60651 2.1835,3.78711 -0.73685,0.60065 -1.66648,0.45291 -1.6733,-0.26593 z m 8.47442,-3.89408 c 0,-0.98267 0.91477,-2.3915 1.55283,-2.3915 0.24996,0 0.73379,-0.30863 1.07516,-0.68584 0.34138,-0.37722 0.94441,-0.73441 1.34007,-0.79375 0.5037,-0.0756 0.75185,-0.41745 0.82768,-1.14032 0.0596,-0.56783 0.51644,-1.41088 1.01529,-1.87344 0.49885,-0.46255 0.8129,-0.99326 0.6979,-1.17934 -0.115,-0.18608 -0.0243,-0.89833 0.20161,-1.58277 0.62399,-1.8907 0.68721,-5.46536 0.11651,-6.5876 -1.96115,-3.85647 -8.94372,-2.41804 -8.94372,1.84243 0,1.36646 -1.00996,3.16211 -2.18363,3.88238 -1.31357,0.80613 -31.042451,1.10823 -31.529358,0.32039 -0.138673,-0.22437 -0.395415,-0.20179 -0.714252,0.0628 -1.714943,1.42327 0.079,-1.67476 3.955998,-6.83179 4.453432,-5.92377 4.453432,-5.92377 9.148372,-5.87356 5.98941,0.0641 5.47418,0.68742 5.42135,-6.55933 -0.0451,-6.17978 4.83514,-15.51175 8.84896,-16.921111 1.34604,-0.472631 1.5358,-0.716435 1.12666,-1.447529 -0.27279,-0.487447 7.1e-4,-1.087993 1.29058,-2.834188 1.50257,-2.034096 2.48933,-2.890856 2.06954,-1.796896 -1.47991,3.856579 0.4773,3.00778 4.08297,-1.770693 2.49666,-3.308738 3.59788,-5.027083 3.22167,-5.027083 -0.31437,0 -0.65461,0.3175 -0.75609,0.705555 -0.2214,0.846634 -0.56531,0.893607 -1.17387,0.160335 -0.24887,-0.299872 -0.63873,-0.473757 -0.86635,-0.386412 -1.01252,0.388545 -0.16412,-1.084737 3.23841,-5.62356 2.62397,-3.500263 3.71267,-5.249783 3.86685,-6.213934 0.2866,-1.792321 0.37314,-1.756527 3.28091,1.357088 13.17558,14.108278 15.99753,34.236038 7.23846,51.628708 -3.034,6.02453 -9.67435,13.73694 -13.29128,15.43709 -0.87966,0.4135 -1.6814,0.95899 -1.78164,1.21222 -0.4242,1.07162 -2.37759,1.8206 -2.37759,0.91163 z M 113.84734,103.9472 c 0.11992,-0.19403 0.0499,-0.35278 -0.15557,-0.35278 -0.20548,0 -0.3736,0.15875 -0.3736,0.35278 0,0.19403 0.07,0.35278 0.15557,0.35278 0.0856,0 0.25368,-0.15875 0.3736,-0.35278 z m 8.41352,-11.1012 c 0.10929,-0.284829 0.0469,-0.611699 -0.13865,-0.726376 -0.51815,-0.320238 -0.40019,-1.227164 0.133,-1.022559 0.32847,0.126046 0.47037,-0.143357 0.47037,-0.893016 0,-1.175575 -0.69485,-1.453009 -1.14247,-0.456154 -0.43738,0.974065 -0.38203,3.614502 0.0758,3.615285 0.22178,3.52e-4 0.49266,-0.232354 0.60196,-0.51718 z m 11.16565,-8.310308 c 0,-0.198831 0.41889,-0.520772 0.93087,-0.715426 1.19726,-0.455197 0.86741,-0.765195 -0.9216,-0.866137 -1.38368,-0.07807 -2.03402,0.859068 -1.1852,1.707887 0.36449,0.364496 1.17593,0.277328 1.17593,-0.126324 z M 95.679284,139.57776 c 0,-0.25871 0.105833,-0.36454 0.235185,-0.23519 0.129351,0.12935 0.129351,0.34102 0,0.47037 -0.129352,0.12935 -0.235185,0.0235 -0.235185,-0.23518 z M 73.801392,133.22209 C 56.949776,116.37047 56.400895,88.641222 72.56723,70.872664 c 2.135365,-2.346998 2.744355,-2.5194 2.438255,-0.690257 -0.189578,1.13285 -0.189578,1.13285 0.642168,0.162711 0.951344,-1.109636 2.276427,-1.360814 1.86107,-0.352778 -2.627758,6.377361 -1.181857,11.729861 3.168654,11.729861 0.467036,0 0.947269,0.15875 1.067185,0.352778 0.260381,0.421305 1.234722,0.474401 1.234722,0.06728 0,-0.157022 0.812382,-1.128325 1.805293,-2.158453 1.278917,-1.326853 1.676438,-1.952596 1.363363,-2.146086 -1.224439,-0.756745 0.836899,-4.045891 2.88046,-4.596164 1.593537,-0.429095 16.17478,-0.336996 16.17547,0.102168 3.5e-4,0.333451 2.26674,0.350113 2.59775,0.0191 0.37646,-0.376462 9.74989,-0.386232 9.74989,-0.01016 0,0.179679 0.71437,0.269874 1.5875,0.200431 1.58132,-0.125768 2.00204,0.118638 1.1276,0.655046 -0.25294,0.155162 -0.99423,1.036175 -1.6473,1.957807 -1.00312,1.415624 -1.36653,1.675694 -2.34151,1.675694 -1.51676,0 -1.84397,0.584603 -0.49326,0.881269 1.13311,0.248872 1.37882,0.685331 0.56224,0.998685 -0.68699,0.26362 -5.85083,7.133292 -5.85083,7.783593 0,0.288953 -0.13942,0.611537 -0.30983,0.716852 -0.34437,0.212837 -0.74166,-1.407412 -0.76119,-3.104357 -0.0127,-1.10243 -0.0127,-1.10243 -0.87177,-0.05106 -0.7908,0.967799 -0.81082,1.07996 -0.2519,1.411111 1.24421,0.737167 0.85448,3.023999 -0.91967,5.396431 -0.47552,0.635871 -0.9429,1.077817 -1.03861,0.982101 -0.28004,-0.280038 -1.55758,1.526339 -1.33463,1.88709 0.11149,0.180386 -0.31476,0.753674 -0.94721,1.273976 -0.63245,0.520304 -0.9435,0.836203 -0.69122,0.702003 0.25228,-0.134204 -0.26366,0.499237 -1.14653,1.407639 -0.88287,0.908407 -1.60522,1.771538 -1.60522,1.918065 0,0.14653 -0.32294,0.63879 -0.717653,1.09389 -1.2931,1.49096 -11.452951,15.16681 -11.462223,15.42893 -0.005,0.14065 -0.531367,0.76991 -1.169761,1.39835 -0.638393,0.62845 -1.068295,1.29216 -0.955339,1.47493 0.112957,0.18277 0.01951,0.44718 -0.207663,0.58758 -0.27902,0.17245 -0.321328,0.0945 -0.130389,-0.24021 0.637377,-1.1173 -0.617029,0.46369 -4.779221,6.0235 -4.133439,5.5214 -5.532019,7.9937 -5.123816,9.05746 0.317774,0.8281 -0.09387,0.52946 -2.270713,-1.64738 z M 87.912771,94.863173 c -0.003,-0.339548 -0.15929,-0.855486 -0.347376,-1.146528 -0.259503,-0.401552 -0.343276,-0.252666 -0.347376,0.617362 -0.003,0.63059 0.153348,1.146527 0.347376,1.146527 0.194028,0 0.350347,-0.277812 0.347376,-0.617361 z m -0.347376,-4.011946 c 0,-1.252718 -0.07335,-1.393431 -0.529167,-1.015137 -0.63718,0.528812 -0.685669,1.466275 -0.105833,2.046111 0.610839,0.610838 0.635,0.571609 0.635,-1.030974 z M 85.27234,80.663868 c 0.119915,-0.194028 0.138653,-0.352778 0.04164,-0.352778 -0.09701,0 -0.274501,0.15875 -0.394417,0.352778 -0.119916,0.194027 -0.138654,0.352777 -0.04164,0.352777 0.09701,0 0.274502,-0.15875 0.394417,-0.352777 z m 22.25215,34.657782 c -0.13699,-0.43164 -0.12373,-0.98466 0.0295,-1.22893 0.1532,-0.24427 0.24343,-0.68226 0.2005,-0.9733 -0.10123,-0.68641 0.51124,-1.64228 0.841,-1.31252 0.14,0.13999 0.27521,0.53506 0.30047,0.87793 0.0253,0.34286 0.16753,0.82015 0.31617,1.06065 0.16397,0.26532 0.0418,0.52493 -0.31081,0.66023 -0.31957,0.12263 -0.70404,0.55546 -0.85438,0.96185 -0.27277,0.73738 -0.27383,0.73729 -0.52241,-0.0459 z m -5.14243,-0.61473 c 0,-0.097 0.0794,-0.17639 0.17639,-0.17639 0.097,0 0.17639,0.0794 0.17639,0.17639 0,0.097 -0.0794,0.17639 -0.17639,0.17639 -0.097,0 -0.17639,-0.0794 -0.17639,-0.17639 z m 0.98195,-0.37036 c -0.61094,-0.61094 2.04453,-4.03936 3.12866,-4.03936 0.88757,0 0.88757,0 -0.21642,1.3939 -0.60719,0.76664 -1.30856,1.31539 -1.5586,1.21944 -0.29013,-0.11133 -0.44389,0.10534 -0.42496,0.59887 0.029,0.75688 -0.51468,1.24114 -0.92868,0.82715 z m 23.95171,-30.392979 c -0.61997,-0.160332 -0.6201,-0.182763 -0.004,-0.63335 0.71996,-0.526454 1.17578,-0.381827 1.17578,0.373068 0,0.523997 -0.0819,0.54218 -1.1719,0.260282 z M 75.218173,68.140257 c 0,-0.09701 0.07938,-0.176389 0.176389,-0.176389 0.09701,0 0.176389,0.07937 0.176389,0.176389 0,0.09701 -0.07937,0.176388 -0.176389,0.176388 -0.09701,0 -0.176389,-0.07937 -0.176389,-0.176388 z m 7.390043,-3.858517 c 0.278014,-0.334987 0.28914,-0.5602 0.03542,-0.717007 -0.706925,-0.436904 -0.354578,-0.764731 2.36412,-2.199603 3.99014,-2.105912 7.6891,-3.367981 8.170623,-2.787781 0.491151,0.591801 0.138931,0.918518 -0.997475,0.925254 -1.075174,0.0064 -1.54478,0.281477 -2.046008,1.198591 -0.356856,0.652952 -0.376476,0.650677 -0.605271,-0.07019 -0.289992,-0.913685 -1.258674,-0.655195 -1.258674,0.335874 0,0.378748 0.15875,0.59052 0.352777,0.470604 0.194028,-0.119916 0.352778,-0.04991 0.352778,0.155569 0,0.205478 0.515938,0.384755 1.146528,0.398392 0.9608,0.02078 1.032234,0.07391 0.440972,0.327983 -0.616896,0.265089 -0.578843,0.306303 0.302827,0.327983 0.886679,0.0218 0.983254,-0.07533 0.800174,-0.804777 -0.249156,-0.992718 0.07369,-1.421648 0.686956,-0.912682 0.327049,0.271426 0.50421,0.177837 0.673593,-0.355839 0.262759,-0.827881 0.727472,-0.945324 0.993846,-0.251166 0.227169,0.591994 -0.09992,1.098676 -0.899757,1.39378 -2.294919,0.846726 1.720015,1.246092 7.264125,0.722564 2.07612,-0.196048 2.46614,-0.34361 2.79065,-1.055825 0.45147,-0.990872 1.10829,-1.115318 0.80256,-0.15206 -0.26094,0.82217 0.37415,1.295247 1.01966,0.759529 0.25794,-0.21408 0.72724,-0.290137 1.04287,-0.169017 0.70882,0.271998 0.77393,-0.839443 0.15024,-2.564249 -0.50809,-1.405099 -1.07908,-1.496209 -1.64146,-0.261919 -0.48236,1.058678 -1.32526,0.950154 -1.20225,-0.154793 0.0822,-0.738293 -0.0262,-0.755718 -4.938888,-0.793872 -6.685197,-0.05192 -4.13908,-0.850923 4.502078,-1.412807 9.62553,-0.625894 17.33915,1.008501 24.87083,5.269741 2.29306,1.297354 2.29306,1.297354 -4.05411,1.394036 -4.10236,0.06249 -6.38977,-0.03109 -6.46759,-0.264583 -0.15545,-0.466327 -2.53108,-0.474294 -2.53108,-0.0085 0,0.228791 -4.56048,0.352778 -12.97589,0.352778 -9.715661,0 -13.434634,0.118994 -14.80168,0.473601 -1.163719,0.301864 -1.94832,0.35106 -2.163713,0.135667 -0.215393,-0.215393 -0.745366,-0.134679 -1.461522,0.222586 -0.848585,0.42333 -1.024382,0.440984 -0.718259,0.07213 z"
         id="path1530" /></g></g></svg>
