<?xml version="1.0" encoding="UTF-8" standalone="no"?>
<!-- Created with Inkscape (http://www.inkscape.org/) -->

<svg
   width="67.828735mm"
   height="67.841637mm"
   viewBox="0 0 67.828735 67.841637"
   version="1.1"
   id="svg5"
   xml:space="preserve"
   xmlns:inkscape="http://www.inkscape.org/namespaces/inkscape"
   xmlns:sodipodi="http://sodipodi.sourceforge.net/DTD/sodipodi-0.dtd"
   xmlns="http://www.w3.org/2000/svg"
   xmlns:svg="http://www.w3.org/2000/svg"><sodipodi:namedview
     id="namedview7"
     pagecolor="#ffffff"
     bordercolor="#000000"
     borderopacity="0.25"
     inkscape:showpageshadow="2"
     inkscape:pageopacity="0.0"
     inkscape:pagecheckerboard="0"
     inkscape:deskcolor="#d1d1d1"
     inkscape:document-units="mm"
     showgrid="false"
     showguides="true" /><defs
     id="defs2" /><g
     inkscape:label="레이어 1"
     inkscape:groupmode="layer"
     id="layer1"
     transform="translate(-66.591341,-68.017416)"><g
       id="g1657"
       transform="translate(-24.949417,17.180084)"><path
         style="fill:#c2dfc8;stroke-width:0.264583"
         d="M 91.547974,84.750855 V 50.88419 H 125.41464 159.2813 V 84.750855 118.61752 H 125.41464 91.547974 Z"
         id="path1673" /><path
         style="fill:#a3caa1;stroke-width:0.264583"
         d="M 91.547974,84.750855 V 50.88419 H 125.41464 159.2813 V 84.750855 118.61752 H 125.41464 91.547974 Z m 49.530686,25.585115 1.50882,-0.74093 1.18451,-1.31747 1.18452,-1.31746 0.45779,-1.3783 0.4578,-1.37829 0.0239,-1.1178 0.0239,-1.11781 -0.39688,-0.38903 -0.39687,-0.38904 -0.71429,-0.17504 -0.71429,-0.17505 -0.67477,0.67478 -0.67478,0.67477 v 0.81632 0.81632 l -0.52672,1.03246 -0.52673,1.03247 -0.97383,0.74293 -0.97383,0.74293 -14.41237,0.0728 -14.41236,0.0728 0.26667,-0.33739 0.26669,-0.33739 17.36604,-23.064908 17.36604,-23.06491 v -0.772727 -0.772728 l -0.49222,-0.445453 -0.49222,-0.445453 -16.90413,0.07372 -16.90413,0.07372 -1.41785,0.785322 -1.41785,0.785322 -0.88032,1.028452 -0.88032,1.028452 -0.42006,0.885229 -0.42007,0.88523 -0.29806,1.484157 -0.29807,1.484157 0.52892,0.711631 0.52891,0.71163 0.80315,0.08063 0.80314,0.08063 0.55976,-0.711622 0.55976,-0.711621 v -0.768609 -0.768609 l 0.53439,-1.047498 0.5344,-1.047498 1.09962,-0.727899 1.09963,-0.727899 14.10869,-0.07498 14.10868,-0.07498 v 0.184889 0.184888 l -6.97444,9.282802 -6.97445,9.282801 -10.62034,14.094686 -10.62035,14.094686 v 0.53556 0.53557 l 0.65887,0.65887 0.65886,0.65886 16.6052,-0.0756 16.6052,-0.0756 z"
         id="path1671" /><path
         style="fill:#5b9c4e;stroke-width:0.264583"
         d="M 91.547974,84.750855 V 50.88419 H 125.41464 159.2813 V 84.750855 118.61752 H 125.41464 91.547974 Z m 49.967996,25.541205 1.41694,-0.78483 1.02163,-1.16062 1.02162,-1.16063 0.53799,-1.4379 0.53799,-1.43791 v -1.0975 -1.0975 l -0.57529,-0.61237 -0.57529,-0.61236 h -0.74762 -0.74764 l -0.50118,0.50118 -0.50118,0.50118 -0.19156,1.15246 -0.19157,1.15247 -0.35608,0.69609 -0.35609,0.69609 -0.81147,0.6828 -0.81146,0.68281 -0.98397,0.27327 -0.98398,0.27328 -13.29531,0.002 -13.29531,0.001 v -0.27566 -0.27566 l 17.33729,-23.010023 17.33729,-23.01002 0.15478,-0.773862 0.15477,-0.773861 -0.68663,-0.686632 -0.68663,-0.686632 -16.607,0.07378 -16.607,0.07378 -1.49435,0.700607 -1.49436,0.700606 -1.03958,1.039582 -1.03958,1.039581 -0.62869,1.298694 -0.62868,1.298693 -0.10577,1.462221 -0.10577,1.462222 0.49027,0.580844 0.49026,0.580844 0.67291,0.158529 0.67291,0.15853 0.6788,-0.53394 0.67879,-0.533939 0.16522,-1.205368 0.16521,-1.205367 0.40103,-0.775513 0.40104,-0.775513 0.97166,-0.741282 0.97166,-0.741281 14.14473,-0.07291 14.14473,-0.07291 -0.43352,0.661638 -0.43352,0.661638 -17.06385,22.654809 -17.06384,22.654815 v 0.7674 0.7674 l 0.53663,0.53663 0.53662,0.53662 16.99202,-0.0736 16.99202,-0.0736 z"
         id="path1669" /><path
         style="fill:#47903d;stroke-width:0.264583"
         d="M 91.547974,84.750855 V 50.88419 H 125.41464 159.2813 V 84.750855 118.61752 H 125.41464 91.547974 Z m 49.294886,26.901985 1.00843,-0.43023 1.10824,-0.93612 1.10823,-0.93612 0.46491,-0.72424 0.46491,-0.72423 0.71604,-1.45521 0.71604,-1.45521 0.01,-1.67597 0.01,-1.67598 -0.74235,-0.63913 -0.74236,-0.63913 h -0.74332 -0.74331 l -0.69076,0.54335 -0.69077,0.54336 -0.28333,1.11029 -0.28334,1.11029 -0.27143,0.69652 -0.27143,0.69652 -0.70838,0.65655 -0.70838,0.65654 -0.89938,0.30058 -0.89938,0.30058 h -12.63221 -12.63221 l -0.13255,-0.34541 -0.13254,-0.34542 3.55814,-4.74781 3.55815,-4.747814 0.74539,-0.79375 0.74538,-0.79375 2.91017,-3.836458 2.91018,-3.836458 0.96033,-1.011026 0.96032,-1.011026 v -0.501123 -0.501121 l 0.75754,-0.869101 0.75753,-0.869103 7.80003,-10.457231 7.80002,-10.457232 0.30598,-0.571728 0.30598,-0.571728 V 59.88539 59.06222 l -0.63189,-0.631897 -0.6319,-0.631897 -0.88946,-0.164209 -0.88946,-0.164209 -15.875,0.08053 -15.87499,0.08053 -1.57186,0.633219 -1.57186,0.633219 -1.21758,1.218864 -1.21758,1.218864 -0.61583,1.273771 -0.61583,1.273771 -0.13318,1.659059 -0.13317,1.659059 0.31859,0.595298 0.3186,0.595298 0.90697,0.378958 0.90697,0.378957 0.63414,-0.159159 0.63414,-0.159159 0.52273,-0.572926 0.52272,-0.572927 0.17713,-1.237387 0.17713,-1.237386 0.58291,-0.864975 0.5829,-0.864975 0.92515,-0.543472 0.92513,-0.543472 12.17031,-0.0054 12.17031,-0.0054 0.86042,0.100449 0.86042,0.100449 v 0.256695 0.256694 l -1.90147,2.558629 -1.90146,2.558629 -0.60893,0.603101 -0.60893,0.603101 -0.92548,1.44676 -0.92549,1.446761 -1.59613,2.05118 -1.59614,2.05118 -0.3258,0.375865 -0.3258,0.375865 -0.66146,0.97969 -0.66146,0.979694 -6.08541,8.034615 -6.08542,8.034617 -1.19062,1.630723 -1.19063,1.630719 -3.63215,4.784667 -3.63216,4.78467 -0.16399,0.6534 -0.16399,0.65339 0.24095,0.72286 0.24096,0.72286 0.73167,0.54526 0.73167,0.54527 11.46841,-0.0736 11.46842,-0.0736 0.14138,0.22876 0.14138,0.22877 5.10435,-0.049 5.10435,-0.049 1.00843,-0.43021 z"
         id="path1667" /><path
         style="fill:#2c4d4f;stroke-width:0.264583"
         d="M 91.547974,84.750855 V 50.88419 H 125.41464 159.2813 V 84.750855 118.61752 H 125.41464 91.547974 Z m 40.290456,27.575975 1.26442,-0.11141 0.40939,0.33977 0.4094,0.33976 0.21134,-0.34196 0.21135,-0.34197 0.18098,0.29284 0.18097,0.29283 h 1.15297 1.15296 l 0.11131,-0.33073 0.11132,-0.33073 0.45111,0.37243 0.45111,0.37243 0.29196,-0.29195 0.29196,-0.29196 0.75985,0.15197 0.75986,0.15198 1.73318,-0.85325 1.73318,-0.85324 0.16256,-0.43754 0.16256,-0.43754 0.73262,-0.92604 0.73263,-0.92604 0.69327,-1.52057 0.69327,-1.52057 0.14524,-1.40727 0.14525,-1.40728 -0.43334,-0.83799 -0.43334,-0.83799 -0.77614,-0.40135 -0.77613,-0.401356 h -0.63547 -0.63547 l -0.89553,0.603496 -0.89553,0.6035 -0.19348,0.65327 -0.19349,0.65328 -0.14769,0.96534 -0.14769,0.96535 -0.56664,0.72036 -0.56664,0.72036 -0.87312,0.36481 -0.87311,0.36482 h -12.57621 -12.57621 v -0.13896 -0.13895 l 4.0349,-5.33097 4.03489,-5.330971 2.64584,-3.469859 2.64583,-3.469857 1.12448,-1.114383 1.12448,-1.114385 v -0.440108 -0.440108 l 2.71198,-3.568983 2.71198,-3.568985 0.52185,-0.687261 0.52186,-0.687263 5.85878,-7.844157 5.85878,-7.844157 0.17861,-0.71164 0.17861,-0.711639 -0.47383,-0.969203 -0.47383,-0.969203 -0.92604,-0.46261 -0.92604,-0.462609 -15.50816,-4.11e-4 -15.50816,-4.12e-4 -1.42517,0.268284 -1.42518,0.268284 -1.44582,0.704985 -1.44581,0.704986 -0.89484,0.94496 -0.89483,0.94496 -0.79981,1.667906 -0.79982,1.667907 -0.13618,1.696491 -0.13618,1.69649 0.93508,0.935082 0.93509,0.935081 h 1.0941 1.0941 l 0.62539,-0.409772 0.62539,-0.409773 0.26936,-0.714707 0.26936,-0.714706 0.13805,-0.994701 0.13804,-0.994701 0.54198,-0.761143 0.54199,-0.761142 1.07373,-0.429625 1.07374,-0.429625 12.0927,0.03866 12.09269,0.03866 0.31387,0.118129 0.31387,0.118129 -2.43054,3.165674 -2.43053,3.165674 -1.32292,1.814536 -1.32292,1.814536 -3.86685,5.118263 -3.86685,5.118267 -9.45644,12.558574 -9.45645,12.558581 0.13427,1.19117 0.13426,1.19118 0.82393,0.73618 0.82394,0.73619 h 11.90208 11.90207 v 0.29289 0.29289 l 0.46302,-0.20753 0.46302,-0.20752 z"
         id="path1665" /><path
         style="fill:#2a5f37;stroke-width:0.264583"
         d="m 91.551979,84.750855 0.01122,-33.866665 h 33.859051 33.85905 v 27.734886 27.734884 l -2.86971,-0.11824 -2.86971,-0.11823 -0.1531,0.39897 -0.1531,0.39898 -0.0643,3.20494 -0.0643,3.20495 0.15843,0.15842 0.15842,0.15842 -0.14237,0.37101 -0.14237,0.37101 h 0.29289 0.29289 l 0.004,-0.59532 0.004,-0.59531 0.23383,-0.36928 0.23383,-0.36928 0.4151,0.15929 0.41511,0.15929 0.20668,-0.31918 0.20668,-0.31917 2.3e-4,-1.05335 2.3e-4,-1.05335 0.46209,-0.0904 0.46209,-0.0904 -0.15458,0.40284 -0.15459,0.40284 0.90796,0.37937 0.90795,0.37937 -0.11049,0.89066 -0.11049,0.89065 -0.3605,0.79375 -0.36051,0.79375 -0.19116,0.52917 -0.19116,0.52917 0.0486,0.2181 0.0486,0.2181 -0.24726,-0.15281 -0.24726,-0.15282 -0.42075,0.16146 -0.42075,0.16146 v 0.35611 0.35612 l -0.30706,0.67391 -0.30705,0.67391 h -0.19343 -0.19343 l -0.21009,-0.72761 -0.21009,-0.7276 -0.017,-0.65571 -0.017,-0.65571 -0.46302,-0.0913 -0.46302,-0.0913 v 1.6069 1.6069 h -0.54267 -0.54266 l -0.37481,-0.89703 -0.3748,-0.89704 0.15569,-1.81494 0.15569,-1.81495 0.0282,-1.09013 0.0282,-1.09013 -0.51721,-0.96039 -0.5172,-0.96039 h -0.43661 -0.4366 l -0.30783,0.37092 -0.30784,0.37091 -0.64296,0.16138 -0.64297,0.16137 -0.28153,0.52605 -0.28153,0.52604 h -0.4065 -0.4065 l 0.0851,0.69762 0.0851,0.69763 -0.39688,0.18729 -0.39687,0.18729 -0.59172,0.30571 -0.59172,0.30571 h -0.53276 -0.53276 v 0.10687 0.10688 l 0.92604,1.63833 0.92604,1.63833 v 0.76834 l 3e-5,0.76833 H 118.39957 91.540756 Z m 50.352721,30.782155 0.1741,-0.17409 -0.31845,-0.38371 -0.31845,-0.3837 0.44036,-0.322 0.44036,-0.322 -0.1483,-0.56708 -0.14829,-0.56709 0.79293,-0.73593 0.79293,-0.73593 0.47836,-0.39688 0.47836,-0.39687 0.52641,-0.14023 0.52642,-0.14023 0.19246,-0.71966 0.19247,-0.71967 h -0.15628 -0.15629 l -0.72106,0.85989 -0.72107,0.8599 -0.18466,-0.1809 -0.18466,-0.1809 0.80753,-1.00973 0.80754,-1.00972 0.69327,-1.52057 0.69327,-1.52057 0.14524,-1.40727 0.14525,-1.40728 -0.43334,-0.83799 -0.43334,-0.83799 -0.77614,-0.40135 -0.77613,-0.401356 h -0.63547 -0.63547 l -0.89553,0.603496 -0.89553,0.6035 -0.19348,0.65327 -0.19349,0.65328 -0.14769,0.96534 -0.14769,0.96535 -0.56664,0.72036 -0.56664,0.72036 -0.87312,0.36481 -0.87311,0.36482 h -12.57621 -12.57621 v -0.13896 -0.13895 l 3.9505,-5.21886 3.95049,-5.218857 2.90558,-3.828762 2.90558,-3.828761 0.35382,-0.116869 0.35382,-0.116869 -0.28168,0.373755 -0.28169,0.373756 -0.84941,1.10477 -0.84942,1.104771 0.22468,0.138864 0.22469,0.138861 0.87728,-1.111343 0.87727,-1.11134 -0.15107,0.437153 -0.15106,0.437155 0.15874,0.158737 0.15873,0.158734 0.48449,-0.43846 0.4845,-0.438459 v 0.252674 0.252675 l -0.28292,0.282919 -0.28292,0.282919 -0.0937,0.497601 -0.0937,0.497602 -0.0202,0.198438 -0.0202,0.198437 h -0.63988 -0.63988 l -0.59002,0.954667 -0.59002,0.95467 -0.17635,0.831268 -0.17636,0.83127 -0.44583,-0.03675 -0.44583,-0.03675 v 0.235186 0.235185 h -0.52917 -0.52916 v 0.264583 0.264584 h 2.90537 2.90538 l 0.15951,-0.635561 0.15952,-0.635561 -0.11592,-4.722251 -0.11592,-4.722252 2.67343,-3.54607 2.67342,-3.546072 0.52185,-0.687261 0.52186,-0.687263 5.85878,-7.844157 5.85878,-7.844157 0.17861,-0.71164 0.17861,-0.711639 -0.47383,-0.969203 -0.47383,-0.969203 -0.92604,-0.46261 -0.92604,-0.462609 -15.50816,-4.11e-4 -15.50816,-4.12e-4 -1.42517,0.268284 -1.42518,0.268284 -1.44582,0.704985 -1.44581,0.704986 -0.89484,0.94496 -0.89483,0.94496 -0.79981,1.667906 -0.79982,1.667907 -0.13618,1.696491 -0.13618,1.69649 0.93508,0.935082 0.93509,0.935081 h 1.0941 1.0941 l 0.62539,-0.409772 0.62539,-0.409773 0.26936,-0.714707 0.26936,-0.714706 0.13805,-0.994701 0.13804,-0.994701 0.54198,-0.761143 0.54199,-0.761142 1.07373,-0.429625 1.07374,-0.429625 12.0927,0.03866 12.09269,0.03866 0.31387,0.118129 0.31387,0.118129 -2.43054,3.165674 -2.43053,3.165674 -1.32292,1.814536 -1.32292,1.814536 -3.86685,5.118263 -3.86685,5.118267 -9.45644,12.558574 -9.45645,12.558575 0.13427,1.19117 0.13426,1.19118 0.82393,0.73618 0.82394,0.73619 h 11.90208 11.90207 v 1.16232 1.16231 l 0.41852,0.1606 0.41851,0.1606 h 2.4919 2.49191 v -0.22766 -0.22766 l -0.67454,-0.99398 -0.67454,-0.99399 0.0996,-0.0996 0.0996,-0.0996 1.10406,0.94504 1.10406,0.94503 v 0.37625 0.37626 h 1.39081 1.39081 l 0.88406,-0.25354 0.88406,-0.25355 -0.16324,0.65042 -0.16325,0.65042 h 0.49011 0.49011 z m -11.46298,-3.00091 0.39688,-0.25648 1.24115,-0.004 1.24116,-0.004 0.16352,0.26458 0.16352,0.26458 -1.80155,-0.004 -1.80155,-0.004 z m 6.61459,0 v -0.26458 h 0.24896 0.24897 l 0.16352,0.26458 0.16352,0.26459 h -0.41248 -0.41249 z m 1.53458,-0.0529 0.3175,-0.3175 0.3175,0.3175 0.3175,0.3175 h -0.635 -0.635 z m -11.98258,-17.140076 -0.16048,-0.259656 0.12371,-1.07681 0.12371,-1.076806 0.32344,-0.389721 0.32344,-0.38972 0.11772,0.117723 0.11773,0.117724 0.21446,0.950902 0.21446,0.950899 -0.53086,0.371832 -0.53087,0.371835 0.17659,0.285726 0.17659,0.285729 h -0.26458 -0.26459 z m 2.42927,18.587086 -0.12197,-0.46805 -0.01,0.79375 -0.01,0.79375 0.13178,-0.3257 0.13177,-0.32569 -0.12197,-0.46806 z m 16.53813,-1.85712 0.27664,-0.33073 h -0.29281 -0.2928 l -0.86407,0.81533 -0.86407,0.81532 0.88023,-0.4846 0.88024,-0.48459 z m -23.48222,-16.455 0.46504,-0.513855 -0.0984,-0.295172 -0.0984,-0.295172 -0.59814,0.809027 -0.59813,0.80903 h 0.23149 0.2315 z m 1.62536,-2.328466 -0.12109,-0.121081 -0.28218,0.1744 -0.28219,0.1744 v 0.281366 0.281366 l 0.40327,-0.334685 0.40327,-0.334682 z m 1.16662,-1.787884 v -0.132292 h -0.13229 -0.13229 v 0.132292 0.132291 h 0.13229 0.13229 z m -13.16697,-12.360637 -0.29096,-0.603946 -0.0179,0.912812 -0.0179,0.912813 0.30887,-0.308867 0.30887,-0.308869 z m 24.11227,-1.728425 0.63425,-0.992188 -0.11933,-0.128338 -0.11933,-0.128339 -0.51859,0.657505 -0.5186,0.657506 -0.26637,0.463021 -0.26636,0.46302 h 0.27004 0.27004 z m -24.17446,-0.62771 v -1.090729 l -0.35296,0.292927 -0.35296,0.292928 0.0348,0.471725 0.0348,0.471725 0.20153,0.326077 0.20152,0.326078 h 0.11668 0.11668 z m 16.66875,-1.718624 v -0.396875 l -0.26459,0.163521 -0.26458,0.163522 v 0.396875 0.396875 l 0.26458,-0.163522 0.26459,-0.163521 z m 11.6333,-3.356962 -0.008,-0.315975 -0.6531,0.742359 -0.65309,0.742358 0.008,0.315975 0.008,0.315975 0.65309,-0.742358 0.6531,-0.742359 z m 6.09378,0.213192 0.32938,-0.396875 h 0.36447 0.36448 v -0.236793 -0.236792 l -1.05833,-0.100929 -1.05834,-0.100928 v 0.558207 0.558207 l 0.17639,0.176389 0.17639,0.176389 h 0.18809 0.18809 z m -5.29167,-1.058333 0.32938,-0.396875 h -0.26458 -0.26459 l -0.32938,0.396875 -0.32937,0.396875 h 0.26458 0.26458 z m -32.54375,-0.917738 v -0.256279 l -0.39687,0.152295 -0.39688,0.152295 v 0.103984 0.103984 h 0.39688 0.39687 z m 24.37542,-0.471325 0.36312,-0.463021 -0.46302,0.363126 -0.46302,0.363126 v 0.0999 0.0999 h 0.0999 0.0999 z m -22.52333,-1.256771 v -0.132291 h -0.1323 -0.13229 v 0.132291 0.132292 h 0.13229 0.1323 z m 0.17639,-0.837847 -0.17639,-0.176388 v 0.352777 0.352778 l 0.17639,-0.176389 0.17638,-0.176389 z m 24.05698,-0.284683 -0.12109,-0.121083 -0.28218,0.174401 -0.28219,0.174401 v 0.281365 0.281365 l 0.40327,-0.334683 0.40327,-0.334684 z m -7.69692,-3.507678 0.16352,-0.264583 h -0.80936 -0.80936 v 0.264583 0.264584 h 0.64584 0.64584 z m -22.00959,-3.302607 1.27374,-0.386463 1.21091,-1.065881 1.2109,-1.065882 h 0.21903 0.21903 l -0.15528,-0.404651 -0.15528,-0.404651 -0.32519,0.444733 -0.3252,0.444733 -0.19546,-0.316255 -0.19545,-0.316255 0.29062,-0.350181 0.29063,-0.35018 -0.33634,-0.27913 -0.33633,-0.27913 -0.94311,0.707046 -0.94312,0.707046 -0.80168,0.926042 -0.80168,0.926042 -0.30339,0.577918 -0.30338,0.577918 v 0.149686 0.149686 l 0.0662,-0.0029 0.0661,-0.0029 1.27374,-0.386463 z m 10.23564,-4.874705 v -0.239814 l -0.52917,0.138381 -0.52917,0.13838 v 0.101433 0.101433 h 0.52917 0.52917 z m 6.40542,-0.191313 0.31721,-0.19605 0.78251,-0.01714 0.78251,-0.01714 0.11155,-0.330729 0.11156,-0.330729 h -3.32934 -3.32934 v 0.259543 0.259542 l -0.66146,0.166016 -0.66146,0.166015 v 0.275765 0.275766 l 2.77952,-0.157403 2.77952,-0.157402 z m -6.93459,-0.52576 v -0.101448 h -0.80937 -0.80936 l 0.14159,0.229101 0.14159,0.2291 0.66778,-0.127653 0.66777,-0.127653 z m 10.65055,0.09699 0.11131,-0.330729 0.48293,0.396875 0.48293,0.396875 -0.12958,-0.396875 -0.12958,-0.396875 -0.66369,-0.07952 -0.66371,-0.07952 -0.34048,0.410251 -0.34047,0.410252 h 0.53951 0.53951 z m 21.36403,63.698436 v -0.13229 h 0.13229 0.13229 v 0.13229 0.13229 h -0.13229 -0.13229 z m 9.78958,-0.037 v -0.16927 l 0.40291,-0.29461 0.4029,-0.29461 0.0818,-1.03841 0.0818,-1.03841 0.88125,-0.7357 0.88125,-0.7357 0.22157,0.13694 0.22157,0.13694 v 2.10105 2.10105 h -1.5875 -1.5875 z m 2.91042,-7.23906 v -0.35278 l 0.17639,0.17639 0.17639,0.17639 -0.17639,0.17639 -0.17639,0.17638 z"
         id="path1663" /><path
         style="fill:#172d2e;stroke-width:0.264583"
         d="m 91.551979,84.750855 0.01122,-33.866665 h 33.859051 33.85905 v 27.734886 27.734884 l -2.86971,-0.11824 -2.86971,-0.11823 -0.1531,0.39897 -0.1531,0.39898 -0.0643,3.20494 -0.0643,3.20495 0.15843,0.15842 0.15842,0.15842 -0.14237,0.37101 -0.14237,0.37101 h 0.29289 0.29289 l 0.004,-0.59532 0.004,-0.59531 0.23383,-0.36928 0.23383,-0.36928 0.4151,0.15929 0.41511,0.15929 0.20668,-0.31918 0.20668,-0.31917 2.3e-4,-1.05335 2.3e-4,-1.05335 0.46209,-0.0904 0.46209,-0.0904 -0.15458,0.40284 -0.15459,0.40284 0.90796,0.37937 0.90795,0.37937 -0.11049,0.89066 -0.11049,0.89065 -0.3605,0.79375 -0.36051,0.79375 -0.19116,0.52917 -0.19116,0.52917 0.0486,0.2181 0.0486,0.2181 -0.24726,-0.15281 -0.24726,-0.15282 -0.42075,0.16146 -0.42075,0.16146 v 0.35611 0.35612 l -0.30706,0.67391 -0.30705,0.67391 h -0.19343 -0.19343 l -0.21009,-0.72761 -0.21009,-0.7276 -0.017,-0.65571 -0.017,-0.65571 -0.46302,-0.0913 -0.46302,-0.0913 v 1.6069 1.6069 h -0.54267 -0.54266 l -0.37481,-0.89703 -0.3748,-0.89704 0.15569,-1.81494 0.15569,-1.81495 0.0282,-1.09013 0.0282,-1.09013 -0.51721,-0.96039 -0.5172,-0.96039 h -0.43661 -0.4366 l -0.30783,0.37092 -0.30784,0.37091 -0.64296,0.16138 -0.64297,0.16137 -0.28153,0.52605 -0.28153,0.52604 h -0.4065 -0.4065 l 0.0851,0.69762 0.0851,0.69763 -0.39688,0.18729 -0.39687,0.18729 -0.59172,0.30571 -0.59172,0.30571 h -0.53276 -0.53276 v 0.10687 0.10688 l 0.92604,1.63833 0.92604,1.63833 v 0.76834 l 3e-5,0.76833 H 118.39957 91.540756 Z m 50.352721,30.782155 0.1741,-0.17409 -0.31845,-0.38371 -0.31845,-0.3837 0.44036,-0.322 0.44036,-0.322 -0.1483,-0.56708 -0.14829,-0.56709 0.88857,-0.8248 0.88858,-0.82481 0.41907,-0.37415 0.41907,-0.37414 h 0.44913 0.44913 l 0.13809,-0.35986 0.13809,-0.35986 0.0771,-0.72365 0.0772,-0.72364 0.25219,-0.17327 0.2522,-0.17326 0.51644,-1.7198 0.51645,-1.71979 v -1.50398 -1.50398 l -0.78277,-0.81703 -0.78276,-0.817027 -0.97985,-0.293571 -0.97985,-0.293571 -1.18935,0.575755 -1.18935,0.575754 -0.42148,0.88819 -0.42147,0.88819 v 0.72253 0.72253 l -0.5315,0.86 -0.53151,0.85999 -0.72526,0.29933 -0.72527,0.29933 -12.19781,-0.0698 -12.1978,-0.0698 3.59885,-4.81693 3.59884,-4.816928 0.24375,-0.01172 0.24375,-0.01172 0.48386,-0.437883 0.48385,-0.437883 v -0.457729 -0.457729 l 0.65295,-0.427831 0.65296,-0.427831 -0.12096,-0.330203 -0.12095,-0.330203 0.81736,-0.926041 0.81737,-0.926042 h 0.21448 0.21448 l 0.8587,-1.058333 0.85869,-1.058333 -0.15535,0.437152 -0.15535,0.437155 0.15874,0.158737 0.15873,0.158734 0.48449,-0.438459 0.4845,-0.43846 v 0.252674 0.252675 l -0.28292,0.282919 -0.28292,0.282919 -0.0937,0.497602 -0.0937,0.497601 -0.0202,0.198438 -0.0202,0.198445 h -0.63988 -0.63988 l -0.59002,0.954667 -0.59002,0.95467 -0.17635,0.831268 -0.17636,0.83127 -0.44583,-0.03675 -0.44583,-0.03675 v 0.235186 0.235185 h -0.52917 -0.52916 v 0.264583 0.264584 h 2.89258 2.89259 l 0.16364,-0.515586 0.16364,-0.515588 -0.0686,-4.474424 -0.0687,-4.474424 2.89242,-3.873532 2.89242,-3.873529 h 0.34663 0.34664 l 0.57899,-0.981307 0.57898,-0.98131 0.0474,-0.323301 0.0474,-0.323301 0.9797,-1.275077 0.97971,-1.275078 0.2218,0.06107 0.22181,0.06107 0.5542,-0.704556 0.55421,-0.704556 -0.13381,-0.348706 -0.13381,-0.348705 h 0.35617 0.35617 l 0.30803,-0.371146 0.30802,-0.371145 -0.25519,-0.09188 -0.25519,-0.09188 3.18061,-4.233333 3.18061,-4.233333 0.23854,-0.445627 0.23853,-0.445627 V 60.01657 59.059995 l -0.38335,-0.741321 -0.38335,-0.74132 -0.74113,-0.499394 -0.74112,-0.499394 -6.08542,-0.135209 -6.08542,-0.135209 -10.71562,0.149903 -10.71563,0.149903 -0.77202,0.323457 -0.77202,0.323456 -0.74933,0.08725 -0.74933,0.08725 V 57.14892 56.868473 l -0.35649,0.487527 -0.35649,0.487526 -0.19546,-0.316255 -0.19545,-0.316255 0.29062,-0.350181 0.29063,-0.35018 -0.33634,-0.27913 -0.33633,-0.27913 -0.94311,0.707046 -0.94312,0.707046 -0.80168,0.926042 -0.80168,0.926042 -0.32482,0.617973 -0.32482,0.617973 0.11703,0.117033 0.11703,0.117034 0.71538,-0.271986 0.71538,-0.271986 h 0.22819 0.22819 l -0.81794,1.585966 -0.81795,1.585965 -0.11537,1.94791 -0.11538,1.94791 0.42883,0.829258 0.42883,0.829257 0.66391,0.435013 0.66391,0.435014 1.1803,0.220504 1.1803,0.220503 1.10039,-1.016066 1.10039,-1.016066 0.20808,-1.533282 0.20807,-1.533281 0.81517,-0.815657 0.81517,-0.815656 6.47769,-0.07929 6.47769,-0.07929 v 0.277729 0.27773 h 0.64584 0.64584 l 0.16952,-0.27429 0.16952,-0.274289 5.15064,0.03724 5.15063,0.03724 -0.079,0.170904 -0.079,0.170904 -1.19062,1.63632 -1.19063,1.63632 -0.49738,0.133834 -0.49739,0.133833 0.14609,0.380694 0.14609,0.380694 -0.90548,0.877617 -0.90547,0.877618 v 0.240741 0.240741 l -1.85208,2.512436 -1.85208,2.512436 V 74.972623 74.66547 l -0.26459,0.163521 -0.26458,0.163522 v 0.493286 0.493285 l -0.87365,1.144746 -0.87365,1.144745 -6.60251,8.731249 -6.6025,8.73125 -0.3952,0.566041 -0.3952,0.566039 -3.99134,5.254796 -3.99134,5.25479 -0.30814,0.57792 -0.30814,0.57792 v 0.7276 0.72761 l 0.54241,1.12046 0.5424,1.12046 0.42556,0.35214 0.42556,0.35214 h 12.06276 12.06277 l 0.09,0.79289 0.09,0.79289 0.30685,0.19525 0.30686,0.19524 2.57969,0.004 2.57969,0.004 v -0.14544 -0.14543 l -0.41639,-0.80519 -0.41638,-0.8052 0.11858,-0.11858 0.11857,-0.11858 0.82697,0.69585 0.82698,0.69586 v 0.37335 0.37336 h 1.39081 1.39081 l 0.88406,-0.25355 0.88406,-0.25354 -0.16324,0.65042 -0.16325,0.65042 h 0.49011 0.49011 l 0.17409,-0.1741 z m -15.29639,-20.193896 -0.16048,-0.259656 0.12371,-1.07681 0.12371,-1.076806 0.32344,-0.389721 0.32344,-0.38972 0.11772,0.117723 0.11773,0.117724 0.21446,0.950902 0.21446,0.950899 -0.53086,0.371832 -0.53087,0.371835 0.17659,0.285726 0.17659,0.285729 h -0.26458 -0.26459 z m 2.42927,18.587086 -0.12197,-0.46805 -0.01,0.79375 -0.01,0.79375 0.13178,-0.3257 0.13177,-0.32569 -0.12197,-0.46806 z m 16.53813,-1.85712 0.27664,-0.33073 h -0.29281 -0.2928 l -0.86407,0.81533 -0.86407,0.81532 0.88023,-0.4846 0.88024,-0.48459 z m -33.85721,-32.931987 -0.29096,-0.603946 -0.0179,0.912812 -0.0179,0.912813 0.30887,-0.308867 0.30887,-0.308869 z m -0.0622,-2.356135 v -1.090729 l -0.35296,0.292927 -0.35296,0.292928 0.0348,0.471725 0.0348,0.471725 0.20153,0.326077 0.20152,0.326078 h 0.11668 0.11668 z m 34.39583,-4.862394 0.32938,-0.396875 h 0.36447 0.36448 v -0.236793 -0.236792 l -1.05833,-0.100929 -1.05834,-0.100928 v 0.558207 0.558207 l 0.17639,0.176389 0.17639,0.176389 h 0.18809 0.18809 z M 114.83131,55.406877 v -0.239814 l -0.52917,0.138381 -0.52917,0.13838 v 0.101433 0.101433 h 0.52917 0.52917 z m 6.40542,-0.191313 0.31721,-0.19605 0.78251,-0.01714 0.78251,-0.01714 0.11155,-0.330729 0.11156,-0.330729 h -3.32934 -3.32934 v 0.259543 0.259542 l -0.66146,0.166016 -0.66146,0.166015 v 0.275765 0.275766 l 2.77952,-0.157403 2.77952,-0.157402 z m -6.93459,-0.52576 v -0.101448 h -0.80937 -0.80936 l 0.14159,0.229101 0.14159,0.2291 0.66778,-0.127653 0.66777,-0.127653 z m 10.65055,0.09699 0.11131,-0.330729 0.48293,0.396875 0.48293,0.396875 -0.12958,-0.396875 -0.12958,-0.396875 -0.66369,-0.07952 -0.66371,-0.07952 -0.34048,0.410251 -0.34047,0.410252 h 0.53951 0.53951 z m 21.36403,63.698436 v -0.13229 h 0.13229 0.13229 v 0.13229 0.13229 h -0.13229 -0.13229 z m 9.78958,-0.037 v -0.16927 l 0.40291,-0.29461 0.4029,-0.29461 0.0818,-1.03841 0.0818,-1.03841 0.88125,-0.7357 0.88125,-0.7357 0.22157,0.13694 0.22157,0.13694 v 2.10105 2.10105 h -1.5875 -1.5875 z m 2.91042,-7.23906 v -0.35278 l 0.17639,0.17639 0.17639,0.17639 -0.17639,0.17639 -0.17639,0.17638 z"
         id="path1661" /><path
         style="fill:#07090c;stroke-width:0.264583"
         d="m 91.815563,84.735226 0.0085,-33.882292 0.986424,0.08177 0.986424,0.08177 v 0.571405 0.571405 l 0.198438,0.200296 0.198437,0.200296 0.0084,0.683507 0.0084,0.683507 0.351482,-0.463021 0.351483,-0.46302 h 0.566144 0.566144 V 51.99922 50.997583 h 1.455209 1.455208 v 0.30932 0.30932 l -0.529167,0.13838 -0.529166,0.13838 v 0.676919 0.67692 l 0.492879,0.263781 0.492878,0.26378 0.338042,0.816104 0.338041,0.816103 0.407035,-0.07839 0.407032,-0.07839 -0.11347,-0.264584 -0.11348,-0.264583 -0.198437,0.06615 -0.198437,0.06615 v -0.248969 -0.248968 l 0.264584,-0.163521 0.26458,-0.163522 v -0.240664 -0.240665 l -0.330727,0.126932 -0.330729,0.126932 0.0238,-0.807268 0.0238,-0.807269 0.306924,-0.306926 0.306922,-0.306925 V 51.228148 50.88419 h 0.26459 0.26458 v 0.396875 0.396875 h 0.26458 0.26459 V 51.281065 50.88419 l 0.19843,0.0041 0.19844,0.0041 0.34098,0.216338 0.34099,0.216338 -0.27882,0.733337 -0.27881,0.733337 -0.65748,-0.165018 -0.65748,-0.165017 v 0.371672 0.371672 l 0.33073,0.633972 0.33073,0.633972 0.6029,0.764517 0.6029,0.764517 0.30456,-0.304566 0.30457,-0.304565 -0.3711,-0.6934 -0.3711,-0.6934 0.50639,-0.37028 0.50639,-0.370279 h 0.3463 0.34631 V 53.000954 52.73637 h -0.66146 -0.66146 v -0.26468 -0.264583 h 0.20185 0.20184 l 0.26118,-0.593767 0.26118,-0.593767 0.48394,-0.09112 0.48395,-0.09112 0.74934,0.310387 0.74934,0.310386 -0.0238,1.763565 -0.0238,1.763564 -0.548,0.396072 -0.54801,0.396071 -0.87298,0.471352 -0.87298,0.471352 -0.22152,-0.136906 -0.22152,-0.136906 -0.34821,0.419567 -0.34821,0.419568 0.44684,0.250065 0.44685,0.250066 -0.61456,0.981099 -0.61455,0.9811 -0.50625,1.322917 -0.50624,1.322916 v 1.896914 1.896913 l 0.66146,0.70409 0.66146,0.70409 -0.0325,0.177122 -0.0325,0.177121 0.12756,0.332416 0.12756,0.332416 1.94789,0.924355 1.94789,0.924355 h 0.66899 0.66898 l 0.0117,0.727604 0.0117,0.727604 0.50726,-0.959961 0.50726,-0.959961 0.40709,-0.156214 0.40709,-0.156214 v 0.388571 0.388571 h 0.35586 0.35587 l 0.40157,0.463021 0.40156,0.46302 0.15828,0.841292 0.15827,0.841293 -0.32039,0.130752 -0.3204,0.130752 0.30406,0.218581 0.30405,0.21858 0.0928,0.661459 0.0928,0.661458 0.26458,-0.132292 0.26459,-0.132292 -0.0609,-0.396874 -0.0609,-0.396875 -0.12239,-1.984375 -0.12239,-1.984375 -0.0152,-0.413131 -0.0152,-0.41313 -0.5029,-0.539799 -0.50289,-0.539798 0.23426,-0.369988 0.23426,-0.369987 0.004,-0.740744 0.004,-0.740743 0.37703,-0.729101 0.37703,-0.7291 0.69375,-0.316094 0.69375,-0.316093 h 5.78675 5.78674 l 0.41851,0.160599 0.41852,0.160599 v 0.368568 0.368567 h 0.14335 0.14336 l 0.56799,-0.529167 0.568,-0.529166 h 3.65427 3.65428 v 0.264583 0.264583 h -0.52917 -0.52916 v 0.758069 0.758069 l -0.54837,0.697139 -0.54837,0.69714 -0.8407,0.0186 -0.84069,0.0186 -0.52917,0.22739 -0.52916,0.227391 1.91823,0.0186 1.91823,0.01859 v 0.282414 0.282412 l -0.4876,-0.154755 -0.48759,-0.154757 -0.68307,0.5373 -0.68306,0.537299 -0.94601,1.288721 -0.94601,1.288721 -0.004,0.890593 -0.004,0.890594 -0.22383,0.353096 -0.22382,0.353095 -0.16539,-0.617679 -0.16539,-0.617679 -0.004,-2.082917 -0.004,-2.082918 -0.35507,0.294685 -0.35507,0.294684 -0.1741,-0.174093 -0.17409,-0.174093 v -1.014236 -1.014236 h -0.25702 -0.25702 l -0.23538,0.859895 -0.23538,0.859896 0.20619,0.229729 0.20619,0.22973 -0.69738,0.599862 -0.69738,0.599862 0.36384,0.438392 0.36383,0.438394 -0.27509,0.275092 -0.2751,0.275093 -0.57647,-0.352452 -0.57648,-0.352452 -0.38711,0.522272 -0.3871,0.522271 -0.1607,1.004947 -0.1607,1.004946 -0.26842,0.165891 -0.26841,0.165891 0.18829,-0.767067 0.18829,-0.767068 -0.44284,0.434873 -0.44283,0.434873 -0.0651,0.827335 -0.0651,0.827334 -0.17095,0.170952 -0.17095,0.170952 0.004,0.551216 0.004,0.551215 0.25048,-0.396231 0.25048,-0.396232 0.70299,-0.843122 0.70298,-0.843122 0.55855,0.313312 0.55855,0.313312 0.31712,0.396875 0.31711,0.396875 0.17683,-0.456071 0.17683,-0.456071 0.30509,-1.183681 0.30509,-1.183681 0.57102,0.642767 0.57102,0.642767 -0.50488,0.641843 -0.50487,0.641842 v 0.156705 0.156705 h 0.52917 0.52916 v 0.160363 0.160362 l -0.81698,1.031521 -0.81697,1.03152 -0.2199,-0.135906 -0.2199,-0.135906 0.40302,-0.807885 0.40303,-0.807886 -0.10603,-0.10603 -0.10603,-0.106031 -2.04686,2.702209 -2.04686,2.70221 0.56305,0.13457 0.56304,0.134567 -0.57627,0.521518 -0.57627,0.52152 -0.36949,0.884309 -0.36949,0.884308 -0.26958,-0.166613 -0.26959,-0.166613 -0.72814,0.438364 -0.72815,0.438362 -3.24948,4.346918 -3.24949,4.346919 -0.0328,0.87353 -0.0328,0.87353 -0.55413,0.243445 -0.55413,0.243449 -0.0825,0.714965 -0.0825,0.714965 -0.51281,0.162761 -0.51281,0.162761 v 0.379045 0.379044 h -0.56157 -0.56156 l 0.32678,0.393745 0.32678,0.393743 -0.49282,0.183702 -0.49282,0.183701 -0.74718,0.545121 -0.74719,0.545125 -2.45997,3.3092 -2.45997,3.30921 -0.29861,0.57799 -0.29862,0.57798 0.26652,0.70099 0.26651,0.70098 -0.16094,0.26042 -0.16095,0.26042 -0.36164,-0.13877 -0.36164,-0.13878 -0.14241,0.23043 -0.14242,0.23043 0.33238,0.12182 0.33238,0.12181 -0.33073,0.35058 -0.33073,0.35057 v 0.38497 0.38496 l 0.48385,-0.43788 0.48386,-0.43788 h 0.28401 0.28401 l 0.29378,0.84271 0.29377,0.84272 0.43708,0.48297 0.43709,0.48298 -0.60731,0.64645 -0.60731,0.64645 0.89585,0.4272 0.89585,0.42721 0.79242,-0.32666 0.79242,-0.32665 0.66146,-0.0665 0.66146,-0.0665 0.76693,-0.19252 0.76693,-0.19251 -0.21299,0.34462 -0.21299,0.34463 0.63669,-0.19127 0.63668,-0.19127 0.52917,-0.15653 0.52916,-0.15653 -0.42277,0.50456 -0.42278,0.50456 -0.18815,0.33072 -0.18815,0.33073 h 4.11666 4.11665 v -0.79375 -0.79375 h 5.39014 5.39015 l 0.21093,1.12448 0.21094,1.12448 0.1618,-1.05833 0.16181,-1.05833 0.22515,0.64911 0.22515,0.64912 0.34306,0.34307 0.34307,0.34307 h 0.28349 0.28348 v 0.26458 0.26459 h 0.26458 0.26459 v -0.52917 -0.52917 h 0.25628 0.25627 l -0.10188,0.33073 -0.10189,0.33073 -0.15944,0.72761 -0.15943,0.7276 h -9.24707 -9.24707 l 0.1523,-0.39687 0.15229,-0.39688 h -0.26458 -0.26459 l -0.15229,0.39688 -0.1523,0.39687 H 102.13685 91.807042 Z m 38.493867,33.353124 0.16352,-0.26458 h -0.41249 -0.41249 v 0.26458 0.26459 h 0.24897 0.24897 z m -20.32882,-21.343052 -0.17639,-0.176387 v 0.352777 0.352777 l 0.17639,-0.176388 0.17639,-0.176389 z m 0.61736,-0.485069 v -0.132291 h -0.13229 -0.13229 v 0.132291 0.132292 h 0.13229 0.13229 z M 94.987557,89.381063 v -0.396875 h -0.414705 -0.414704 l 0.167951,-0.529167 0.167951,-0.529166 h -0.238316 -0.238316 l -0.1999,0.198437 -0.199901,0.198438 h -0.704092 -0.704093 l -0.08455,0.595312 -0.08455,0.595313 h 0.154283 0.154284 l 0.5213,-0.325557 0.521299,-0.325556 0.457849,0.457848 0.457848,0.457848 h 0.340179 0.340178 z m 25.580813,-6.151562 0.1642,-0.463021 0.39914,-0.464643 0.39913,-0.464642 -0.10862,-0.108548 -0.10862,-0.108546 -0.74476,1.036209 -0.74477,1.036212 h 0.29005 0.29004 z m -8.64748,-3.770312 v -0.79375 h -0.26458 -0.26459 v 0.79375 0.79375 h 0.26459 0.26458 z m 0,-2.645834 v -1.058333 h -0.14969 -0.14968 l -0.46857,0.250773 -0.46858,0.250773 0.0416,0.564132 0.0416,0.564132 0.37826,0.239376 0.37826,0.239376 0.19844,0.004 0.19844,0.0041 z m -6.35405,-21.894269 -0.004,-0.198438 -0.19439,-0.264583 -0.19439,-0.264583 -0.99218,-0.04734 -0.99219,-0.04734 v 0.333968 0.333969 l 0.17639,0.176389 0.17639,0.176389 h 1.01423 1.01424 z m 26.46238,63.301564 v -0.39688 h 0.26459 0.26458 v 0.39688 0.39687 h -0.26458 -0.26459 z m 1.53789,0.21613 0.34727,-0.13896 0.15985,0.15985 0.15985,0.15985 -0.50711,-0.0209 -0.50712,-0.0209 0.34726,-0.13897 z m 2.87712,-0.67916 -0.14081,-0.85989 -0.17431,-0.99219 -0.17431,-0.99219 h 0.2437 0.2437 l 0.35323,0.72761 0.35322,0.7276 -0.0497,0.20916 -0.0497,0.20915 0.25405,0.4747 0.25405,0.47469 0.85006,-0.12476 0.85007,-0.12476 -0.1745,0.45474 -0.1745,0.45473 v 0.11066 0.11065 h -1.16168 -1.16168 z m 8.08023,-0.23384 -0.60163,-1.15522 -0.66436,-0.91272 -0.66437,-0.91271 0.0754,-0.38828 0.0754,-0.38827 0.29704,-0.0989 0.29704,-0.0989 0.14967,0.47384 0.14966,0.47384 0.38367,0.66146 0.38368,0.66146 0.45652,0.93642 0.45654,0.93643 -0.0963,0.48337 -0.0963,0.48337 z m 7.06993,0.2662 -0.34278,-0.82754 -0.0484,-1.09069 -0.0484,-1.09069 0.266,-1.05833 0.266,-1.05833 -0.0502,-0.92605 -0.0502,-0.92604 -0.65417,-0.99219 -0.65417,-0.99218 h -0.24193 -0.24193 l -0.38381,0.38381 -0.38381,0.38381 -0.7004,0.17579 -0.7004,0.17579 -0.26691,0.49873 -0.26692,0.49873 h -0.24434 -0.24435 l 0.83268,-1.3395 0.83268,-1.3395 0.73796,-0.14759 0.73796,-0.1476 0.30291,-0.36498 0.30291,-0.36499 h -0.69385 -0.69386 l -0.0293,-0.59532 -0.0293,-0.59531 0.0421,-0.5484 0.0421,-0.5484 -0.42197,-1.24289 -0.42197,-1.24288 0.16021,-0.25924 0.16022,-0.25923 h 0.38126 0.38126 v -0.35587 -0.35586 l -0.46302,-0.40772 -0.46302,-0.40772 -1.32292,-0.653774 -1.32292,-0.653772 -0.73752,-0.17767 -0.73751,-0.17767 -1.02425,0.275801 -1.02426,0.275802 -0.80486,0.916693 -0.80487,0.9167 -0.16536,0.99784 -0.16536,0.99785 -0.28183,0.74008 -0.28184,0.74008 -0.69033,0.35313 -0.69034,0.35313 -9.39271,0.16753 -9.39271,0.16754 -0.79375,-0.22023 -0.79375,-0.22022 -0.0851,-0.58143 -0.0851,-0.58142 -0.24567,0.15183 -0.24566,0.15183 v 0.51355 0.51355 h -0.79375 -0.79375 v -0.51189 -0.51188 l 3.08444,-4.14092 3.08445,-4.140924 3.19941,0.04998 3.1994,0.04998 0.33073,-0.02738 0.33073,-0.02738 0.004,-4.299479 0.004,-4.299479 0.21385,0.336952 0.21384,0.336952 0.70814,-0.995267 0.70815,-0.995267 v 0.592169 0.592169 h -0.23374 -0.23374 l -0.12765,0.667774 -0.12766,0.667771 0.2558,0.158094 0.2558,0.158091 1.17166,-0.825865 1.17166,-0.825865 h 0.22202 0.22201 l 0.15014,-1.119415 0.15015,-1.119415 -0.13516,-0.135152 -0.13515,-0.135151 -0.2372,0.394671 -0.2372,0.394671 -0.24152,0.362976 -0.24152,0.362979 -0.69506,-0.231685 -0.69505,-0.231685 2.28768,-3.041708 2.28768,-3.04171 0.46686,-0.597207 0.46687,-0.597207 0.42345,0.162494 0.42345,0.162493 v 0.309695 0.309698 l -0.45631,0.65147 -0.4563,0.65147 0.0784,0.598025 0.0784,0.598027 h -0.28352 -0.28352 v 0.239813 0.239813 l 0.50471,-0.131982 0.5047,-0.131985 0.13199,-0.504703 0.13198,-0.504706 h 0.67061 0.67062 l 0.13436,-0.217408 0.13437,-0.217408 -0.35174,-0.677987 -0.35175,-0.677987 0.22894,-0.361376 0.22894,-0.361376 0.004,-0.702834 0.004,-0.702833 -0.59531,0.140586 -0.59532,0.140589 0.50345,-0.389803 0.50344,-0.389803 -0.17703,-0.286439 -0.17703,-0.28644 0.24117,-0.149054 0.24118,-0.149054 0.16002,0.416995 0.16001,0.416995 v 0.507527 0.507527 h 0.13229 0.1323 l 0.52916,-0.529167 0.52917,-0.529167 h 0.52917 0.52916 V 76.54877 76.284187 h 0.34373 0.34372 l 0.35502,0.992187 0.35502,0.992188 0.28448,0.183245 0.28448,0.183248 -0.73587,0.279773 -0.73586,0.279775 -0.3135,-0.0059 -0.31351,-0.0059 0.6313,-0.485426 0.63131,-0.485423 -0.29511,-0.182385 -0.29511,-0.182388 -0.49143,0.263009 -0.49143,0.263006 0.0449,0.609124 0.0449,0.609124 h 0.28676 0.28675 l 0.14982,0.149815 0.14981,0.149815 -0.24159,0.842372 -0.24159,0.842373 h 0.36279 0.36279 l 0.16352,-0.264584 0.16352,-0.264583 h 0.2668 0.2668 l -0.16795,0.529167 -0.16795,0.529166 h 0.27737 0.27737 l 0.16556,-0.65963 0.16556,-0.65963 0.23636,0.146079 0.23636,0.146077 v 0.68448 0.684479 l 0.64882,-0.700095 0.64884,-0.700111 0.34336,-0.0059 0.34337,-0.0059 0.66145,-0.5174 0.66146,-0.517401 0.59532,-0.0059 0.59531,-0.0059 v -0.79375 -0.79375 h -0.39688 -0.39687 V 78.0774 77.753946 l -0.41188,0.588037 -0.41188,0.588039 h -0.38187 -0.38187 v -0.47625 -0.47625 l 0.28939,-0.289396 0.2894,-0.289396 -0.091,-0.432212 -0.091,-0.432211 -0.59449,0.418536 -0.59449,0.418537 -0.16693,1.043903 -0.16693,1.043906 h -0.2255 -0.2255 l 0.12529,-1.472489 0.12531,-1.47249 -0.47217,0.149858 -0.47216,0.149858 0.0109,-1.984544 0.0109,-1.984544 0.26459,0.002 0.26458,0.002 0.30583,0.659394 0.30583,0.659374 h -0.23969 -0.23969 v 0.79375 0.79375 h 0.38857 0.38857 l -0.14743,-0.384205 -0.14744,-0.384205 0.16801,-0.271835 0.168,-0.271835 0.50487,0.315295 0.50486,0.315295 0.20827,-0.208266 0.20827,-0.208266 -0.45695,-0.255719 -0.45694,-0.255719 0.0557,-0.673053 0.0557,-0.673054 0.47506,-0.254243 0.47505,-0.254244 0.25136,0.155348 0.25136,0.155348 0.17269,-0.68806 0.1727,-0.68806 0.36423,0.139769 0.36423,0.139768 V 71.135973 70.76678 l 0.78784,-0.393028 0.78784,-0.393028 0.55763,0.145822 0.55762,0.145822 -0.16296,0.868653 -0.16296,0.868654 0.22968,0.14195 0.22968,0.14195 0.055,-1.524661 0.055,-1.524662 -0.5305,-0.480098 -0.53051,-0.480098 -0.60597,0.141721 -0.60597,0.141722 -1.32292,-0.210845 -1.32292,-0.210845 -1.40197,0.365066 -1.40197,0.365065 h -0.51626 -0.51626 v -0.170325 -0.170324 l 2.51557,-3.366227 2.51557,-3.366226 0.39198,-1.292095 0.39199,-1.292094 0.003,-1.088798 0.003,-1.088798 -0.57452,-0.730379 -0.57451,-0.73038 -1.07913,-0.490116 -1.07913,-0.490116 -3.24115,-0.0058 -3.24114,-0.0058 v -0.414704 -0.414705 l -0.52917,0.167951 -0.52917,0.167951 v -0.266798 -0.266798 l 0.26459,-0.163521 0.26458,-0.163522 v -0.248968 -0.248969 h -1.32292 -1.32291 v 0.49677 0.49677 l -0.39375,0.326778 -0.39374,0.326779 -0.14858,-0.387197 -0.14859,-0.387197 0.0793,-0.370205 0.0793,-0.370206 h -0.5256 -0.5256 l -0.34796,0.725993 -0.34796,0.725993 -0.58165,0.145326 -0.58164,0.145326 -2.51354,-0.07757 -2.51355,-0.07757 -0.0866,-0.757731 -0.0866,-0.75773 -0.51426,-0.134482 -0.51426,-0.134483 0.29293,-0.352968 0.29294,-0.352968 -0.17068,-0.276173 -0.17069,-0.276173 h -0.39687 -0.39688 l 0.16352,-0.264584 0.16352,-0.264583 h 17.05002 17.05 v 8.451051 8.451052 l -0.26529,0.163963 -0.2653,0.163964 0.26203,0.489611 0.26203,0.489612 -0.10049,3.899614 -0.10049,3.899615 -0.40218,0.225071 -0.40218,0.22507 -0.17875,1.058042 -0.17876,1.058043 -0.41079,0.229888 -0.41079,0.229891 0.19127,0.309475 0.19127,0.309478 0.83415,-0.815541 0.83416,-0.815541 0.10231,0.306919 0.1023,0.306922 -0.33073,0.204402 -0.33073,0.204401 0.17051,0.275883 0.1705,0.275881 -0.24406,0.150839 -0.24406,0.150837 0.13831,0.528904 0.13831,0.528902 h 0.23373 0.23372 V 94.011271 106.1821 h -2.8151 -2.8151 l -0.35148,0.46302 -0.35149,0.46303 -0.008,5.75468 -0.008,5.75469 h -0.49706 -0.49707 z M 119.32922,101.4196 v -0.26458 h -0.26458 -0.26458 v 0.26458 0.26459 h 0.26458 0.26458 z m 27.94158,-12.147564 0.36884,0.306113 V 88.9253 88.272454 l 0.46302,-0.397124 0.46302,-0.397124 1.27652,-0.603091 1.27653,-0.603088 0.22447,0.2316 0.22447,0.231603 0.11301,0.79375 0.11301,0.79375 0.0396,-1.741839 0.0396,-1.741842 -0.16046,-0.160457 -0.16045,-0.160457 -0.52914,0.492972 -0.52914,0.492969 0.17604,0.284848 0.17605,0.284848 h -0.53648 -0.53648 l 0.15144,-0.394645 0.15144,-0.394644 -0.42769,-0.164124 -0.4277,-0.164121 -0.3999,0.331888 -0.3999,0.331885 0.12946,0.129458 0.12945,0.129456 -0.91681,1.071088 -0.91681,1.071092 v 0.453234 0.453234 l -0.39688,0.152296 -0.39687,0.152295 v 0.291785 0.291787 l 0.42491,-0.424907 0.4249,-0.424905 z m -11.47476,-3.767873 -0.0696,-0.418134 0.40037,-0.332274 0.40037,-0.332277 v -0.201009 -0.201007 l -0.95306,0.327644 -0.95305,0.327644 -0.23352,0.368782 -0.23352,0.368781 -0.004,0.226746 -0.004,0.226745 0.39687,-0.152297 0.39688,-0.152294 v 0.27568 0.27568 l 0.46302,-0.09514 0.46302,-0.09514 -0.0696,-0.418135 z m 11.8436,-0.52112 v -0.232188 l -0.19844,0.004 -0.19844,0.004 -0.36462,0.23095 -0.36463,0.230949 0.18974,0.307012 0.18975,0.307015 0.37332,-0.30983 0.37332,-0.309827 v -0.232185 z m 1.22458,-0.816309 0.19749,-0.319537 0.0647,-0.606504 0.0647,-0.606505 h -0.27893 -0.27893 l 0.31091,-0.374623 0.31091,-0.374624 -0.53799,-0.170751 -0.53798,-0.170749 -0.65826,0.479227 -0.65825,0.479229 -0.008,0.363125 -0.008,0.363127 0.40327,-0.334685 0.40327,-0.334682 0.1636,0.1636 0.1636,0.163602 -0.30685,0.369734 -0.30685,0.369732 0.16516,0.430411 0.16517,0.430411 h 0.48524 0.48525 l 0.19748,-0.319538 z m 2.82206,-1.201816 -0.1217,-1.256771 -0.0895,-0.264584 -0.0895,-0.264583 -0.0209,1.521354 -0.0209,1.521354 h 0.23209 0.23208 z m -0.16609,-2.359203 -0.17639,-0.176387 v 0.352777 0.352777 l 0.17639,-0.176387 0.17639,-0.17639 z m 4.85575,37.672665 0.40193,-0.32232 0.30777,-0.66146 0.30777,-0.66145 0.0179,0.59755 0.0179,0.59755 0.51197,-0.31973 0.51197,-0.31973 -0.14329,-0.71645 -0.14329,-0.71644 0.55736,-0.29829 0.55736,-0.29829 v 1.7291 1.7291 h -0.7717 -0.7717 l -0.13345,-0.33073 -0.13345,-0.33073 -0.0209,0.33073 -0.0209,0.33073 -0.7276,-0.008 -0.72761,-0.008 0.40193,-0.32231 z m -14.86997,-1.64523 0.7861,-0.66146 h 0.20636 0.20637 l -0.62141,0.66146 -0.62141,0.66145 h -0.37105 -0.37106 z m -3.78821,0.13229 0.16352,-0.26459 h 0.26459 0.26458 l -0.16352,0.26459 -0.16352,0.26458 h -0.26458 -0.26459 z m -23.32743,-1.76389 0.17639,-0.17639 0.17639,0.17639 0.17639,0.17639 h -0.35278 -0.35277 z m 31.39722,-2.60174 v -0.13229 h 0.1323 0.13229 v 0.13229 0.13229 h -0.13229 -0.1323 z m -3.43958,-35.866653 v -0.280198 l 0.26458,0.163521 0.26459,0.163522 v 0.116677 0.116676 h -0.26459 -0.26458 z m -17.4625,-2.630218 v -0.352778 l 0.17639,0.176389 0.17639,0.176389 -0.17639,0.176389 -0.17639,0.176389 z m -1.23472,-0.440972 0.17639,-0.176389 0.17639,0.176389 0.17639,0.176389 h -0.35278 -0.35278 z m 18.16805,-2.07257 v -0.132291 h 0.1323 0.13229 v 0.132291 0.132292 h -0.13229 -0.1323 z m -15.99599,-0.643176 -0.15222,-0.246301 0.2689,-0.166189 0.2689,-0.166188 v 0.412489 0.41249 h -0.11668 -0.11668 z m 20.58521,-0.955735 -0.15667,-0.408285 0.14737,-0.147376 0.14738,-0.147374 0.28219,0.1744 0.28218,0.174401 v 0.38126 0.38126 h -0.27288 -0.27289 z M 108.74589,54.905856 V 54.69419 l 0.27923,-0.27923 0.27923,-0.279229 -0.17417,-0.693934 -0.17416,-0.693933 -0.79866,-0.398424 -0.79866,-0.398423 -0.27741,0.171448 -0.27741,0.171449 0.16895,-0.440279 0.16895,-0.440278 h -0.25628 -0.25628 V 51.148773 50.88419 h 4.63021 4.63021 v 0.414705 0.414704 l -0.59531,-0.147679 -0.59532,-0.147679 0.33073,0.151898 0.33073,0.151898 v 0.47626 0.476259 l -0.59531,0.159537 -0.59531,0.159538 -0.97117,0.0036 -0.97116,0.0036 -0.16827,0.766104 -0.16826,0.766105 -1.16055,0.292228 -1.16054,0.292229 h -0.41201 -0.412 z m 15.03164,-2.350323 0.34727,-0.138965 0.15985,0.159853 0.15985,0.159852 -0.50712,-0.02089 -0.50712,-0.02089 z m -7.20942,-1.219733 0.18065,-0.474432 0.14811,0.148112 0.14812,0.148113 -0.32877,0.326319 -0.32876,0.32632 z"
         id="path1659" /></g></g></svg>
